<svg width="50" height="50" viewBox="0 0 50 50" fill="none" xmlns="http://www.w3.org/2000/svg">
<g clip-path="url(#clip0)">
<path d="M48.9153 22.7584C49.8995 21.7992 50.2469 20.3916 49.8224 19.083C49.3969 17.7744 48.2886 16.8403 46.927 16.6421L34.8204 14.8829C34.3048 14.8079 33.8593 14.4845 33.629 14.0169L28.2165 3.04674C27.6088 1.81426 26.3753 1.04834 25.0006 1.04834C23.627 1.04834 22.3935 1.81426 21.7858 3.04674L16.3723 14.0169C16.142 14.4845 15.6955 14.8079 15.1799 14.8829L3.07333 16.6431C1.7127 16.8403 0.604371 17.7744 0.178861 19.083C-0.245649 20.3916 0.101768 21.7992 1.08595 22.7584L9.84546 31.2966C10.2189 31.6611 10.3901 32.1857 10.302 32.6983L8.23453 44.7558C8.00225 46.1104 8.5479 47.453 9.66024 48.262C10.7716 49.072 12.2183 49.1771 13.4368 48.5353L24.2638 42.8425C24.7253 42.6002 25.276 42.6002 25.7375 42.8425L36.5655 48.5353C37.0942 48.8137 37.6668 48.9508 38.2365 48.9508C38.9764 48.9508 39.7133 48.7195 40.3421 48.262C41.4544 47.453 42 46.1104 41.7678 44.7558L39.6993 32.6993C39.6112 32.1857 39.7824 31.6621 40.1558 31.2976L48.9153 22.7584ZM37.7269 33.0377L39.7944 45.0942C39.8985 45.7009 39.6632 46.2806 39.1646 46.6431C38.6651 47.0045 38.0433 47.0485 37.4976 46.7642L26.6697 41.0704C26.148 40.797 25.5733 40.6589 25.0006 40.6589C24.428 40.6589 23.8543 40.797 23.3316 41.0714L12.5057 46.7642C11.958 47.0485 11.3363 47.0045 10.8377 46.6431C10.3391 46.2806 10.1048 45.7019 10.2079 45.0942L12.2754 33.0377C12.4746 31.8743 12.0892 30.6869 11.2441 29.8639L2.48363 21.3247C2.0421 20.8942 1.89192 20.2874 2.08315 19.7017C2.27337 19.115 2.75095 18.7125 3.36068 18.6234L15.4662 16.8643C16.6346 16.6951 17.6448 15.9622 18.1664 14.903L23.5799 3.9328C23.8523 3.38014 24.3839 3.05074 24.9996 3.05074C25.6164 3.05074 26.147 3.38014 26.4204 3.9328L31.8338 14.903C32.3555 15.9622 33.3647 16.6951 34.5331 16.8643L46.6396 18.6234C47.2494 18.7125 47.7269 19.115 47.9172 19.7017C48.1074 20.2874 47.9582 20.8942 47.5167 21.3247L38.7572 29.8629C37.9121 30.6869 37.5267 31.8733 37.7269 33.0377Z" fill="white"/>
</g>
<defs>
<clipPath id="clip0">
<rect width="50" height="50" fill="white"/>
</clipPath>
</defs>
</svg>
